<svg xmlns="http://www.w3.org/2000/svg" width="72" height="72" fill="none" viewBox="0 0 72 72">
    <rect width="41" height="34" y="34" fill="#C6DFFF" rx="9"/>
    <path stroke="#00377B" stroke-linecap="round" stroke-width="5" d="M37 49H20c-2.761 0-5-2.239-5-5V14c0-2.761 2.239-5 5-5h44c2.761 0 5 2.239 5 5v30c0 2.761-2.239 5-5 5h-.5"/>
    <circle cx="50" cy="43.5" r="7.5" stroke="#00377B" stroke-width="5"/>
    <path stroke="#00377B" stroke-linecap="round" stroke-linejoin="round" stroke-width="5" d="M45.5 50v7l4.5-2.2 4.5 2.2v-7"/>
    <circle cx="15" cy="28" r="15" fill="#C42127"/>
    <path fill="#fff" d="M18.625 23.8c.76 0 1.375-.627 1.375-1.4 0-.773-.616-1.4-1.375-1.4h-6.846c-1.519 0-2.75 1.253-2.75 2.8v2.8c0 1.546 1.231 2.8 2.75 2.8h5.471v2.8h-6.875c-.76 0-1.375.627-1.375 1.4 0 .773.616 1.4 1.375 1.4h6.875c1.519 0 2.75-1.253 2.75-2.8v-2.8c0-1.546-1.231-2.8-2.75-2.8h-5.471v-2.8h6.846z"/>
    <path fill="#fff" d="M16 22c0 .828-.672 1.5-1.5 1.5S13 22.828 13 22v-2.5c0-.828.672-1.5 1.5-1.5s1.5.672 1.5 1.5V22zM16 37c0 .828-.672 1.5-1.5 1.5S13 37.828 13 37v-2.5c0-.828.672-1.5 1.5-1.5s1.5.672 1.5 1.5V37z"/>
</svg>
