<svg xmlns="http://www.w3.org/2000/svg" width="72" height="72" fill="none" viewBox="0 0 72 72">
    <rect width="32" height="32" x="40" fill="#C6DFFF" rx="9"/>
    <circle cx="16" cy="56" r="16" fill="#FFDBDC"/>
    <path fill="#00377B" d="M51.606 58.91c1.406 0 2.546 1.139 2.546 2.545 0 1.405-1.14 2.545-2.546 2.545h-7.515C41.279 64 39 61.72 39 58.91V43.635c0-2.811 2.28-5.09 5.091-5.09h15.273c2.811 0 5.09 2.279 5.09 5.09V58.91c0 2.812-2.279 5.091-5.09 5.091-1.406 0-2.546-1.14-2.546-2.545 0-1.406 1.14-2.546 2.546-2.546V43.636H44.09V58.91h7.515z"/>
    <path fill="#C42127" d="M17.727 41.09c0-1.405 1.14-2.545 2.546-2.545 1.405 0 2.545 1.14 2.545 2.546v17.818c0 1.406-1.14 2.546-2.545 2.546-1.406 0-2.546-1.14-2.546-2.546V41.091z"/>
    <path fill="#C42127" d="M26.11 49.473c.993-.994 2.605-.994 3.599 0 .994.994.994 2.606 0 3.6l-7.636 7.636c-.994.994-2.606.994-3.6 0l-7.636-7.636c-.995-.994-.995-2.606 0-3.6.994-.994 2.605-.994 3.6 0l5.836 5.836 5.836-5.836z"/>
    <path fill="#00377B" d="M49.182 30.91c0 1.405 1.14 2.545 2.545 2.545 1.406 0 2.546-1.14 2.546-2.546V13.091c0-1.406-1.14-2.546-2.546-2.546-1.405 0-2.545 1.14-2.545 2.546v17.818z"/>
    <path fill="#00377B" d="M57.564 19.982c.994.994 2.606.994 3.6 0 .994-.994.994-2.606 0-3.6l-7.637-7.636c-.994-.994-2.605-.994-3.6 0l-7.636 7.636c-.994.994-.994 2.606 0 3.6.994.994 2.606.994 3.6 0l5.836-5.837 5.837 5.837z"/>
    <path fill="#C42127" d="M22.186 28.122c1.362-.35 2.75.469 3.1 1.83.351 1.361-.468 2.75-1.829 3.1-1.033.267-2.1.403-3.184.403-7.03 0-12.728-5.699-12.728-12.728S13.244 8 20.273 8 33 13.698 33 20.727c0 2.265-.594 4.448-1.706 6.369-.704 1.216-2.261 1.632-3.478.927-1.217-.704-1.632-2.261-.928-3.478.666-1.15 1.021-2.455 1.021-3.818 0-4.217-3.419-7.636-7.636-7.636-4.218 0-7.637 3.419-7.637 7.636 0 4.218 3.42 7.637 7.637 7.637.654 0 1.295-.082 1.913-.242z"/>
</svg>
