<svg xmlns="http://www.w3.org/2000/svg" width="72" height="72" fill="none" viewBox="0 0 72 72">
    <rect width="41" height="34" x="31" y="38" fill="#C6DFFF" rx="9"/>
    <rect width="10" height="21" x="2.5" y="27.5" stroke="#C42127" stroke-width="5" rx="2.5"/>
    <rect width="10" height="14" x="19.5" y="46.5" stroke="#C42127" stroke-width="5" rx="2.5"/>
    <rect width="10" height="23" x="36.5" y="32.5" stroke="#00377B" stroke-width="5" rx="2.5"/>
    <rect width="10" height="27" x="53.5" y="11.5" stroke="#00377B" stroke-width="5" rx="2.5"/>
    <rect width="3" height="14" x="6" y="15" fill="#C42127" rx="1.5"/>
    <rect width="3" height="12" x="6" y="46" fill="#C42127" rx="1.5"/>
    <rect width="3" height="13" x="23" y="34" fill="#C42127" rx="1.5"/>
    <rect width="3" height="11" x="23" y="59" fill="#C42127" rx="1.5"/>
    <rect width="3" height="15" x="40" y="18" fill="#00377B" rx="1.5"/>
    <rect width="3" height="14" x="40" y="53" fill="#00377B" rx="1.5"/>
    <rect width="3" height="15" x="57" y="37" fill="#00377B" rx="1.5"/>
    <rect width="3" height="11" x="57" fill="#00377B" rx="1.5"/>
</svg>
