<svg xmlns="http://www.w3.org/2000/svg" width="72" height="72" fill="none" viewBox="0 0 72 72">
    <g clip-path="url(#clip0)">
        <path fill="#fff" d="M0 0H72V72H0z"/>
        <circle cx="49.5" cy="22.5" r="22.5" fill="#C6DFFF"/>
        <path stroke="#00377B" stroke-linecap="square" stroke-linejoin="round" stroke-width="5" d="M39.156 38.824l-3.906-.976-.079-.314-.632-2.527c.879-.908 1.636-1.959 2.24-3.092.623-1.16 1.085-2.41 1.36-3.682.106-.271.206-.558.29-.848.416-.1.8-.288 1.132-.543.09-.067.177-.141.259-.221l.081-.08c.24-.245.436-.53.581-.845.017-.035.032-.07.047-.106.03-.071.058-.144.082-.219.024-.073.046-.15.065-.226.03-.115.05-.232.066-.353l.509-4.079c.034-.264.032-.529-.004-.787v-.004l-.023-.137c-.016-.09-.037-.18-.062-.269-.011-.044-.025-.088-.039-.13-.027-.084-.057-.165-.092-.245-.035-.084-.073-.166-.117-.246-.11-.21-.246-.405-.405-.586-.331-.377-.75-.662-1.21-.835l.158-3.207c.016-.229.03-.444.039-.636l.753-.755c1.151-1.223 2.103-3.317.111-6.356C38.833 4.185 36.234 3 32.637 3c-1.051 0-3.123 0-5.365.835-.78.29-1.58.681-2.366 1.209-8.69.181-9.87 4.216-9.87 8.153 0 .125.004.271.011.434.009.192.023.407.04.636.074 1 .215 2.277.318 3.151-.054.017-.108.036-.16.056-.461.174-.88.458-1.21.835-.16.18-.295.377-.405.586-.044.08-.082.162-.118.246-.033.08-.064.161-.091.244-.015.043-.028.087-.04.131-.025.088-.046.178-.062.269l-.022.137v.004c-.035.26-.037.523-.005.787l.51 4.08c.015.12.036.237.066.352.018.076.04.153.065.226.024.075.05.148.081.22.015.035.03.07.047.105.145.315.342.6.581.844l.081.08c.083.081.169.155.26.223.331.254.715.441 1.131.543.046.012.093.021.14.031.04.272.092.545.15.816.275 1.273.738 2.521 1.36 3.682.604 1.133 1.361 2.184 2.24 3.092l-.632 2.527-.078.314-7.812 1.953c-3.6.9-6.434 3.433-7.798 6.691-.304.73-.535 1.496-.684 2.288 1.998 1.205 4.202 2.264 6.574 3.15C14.8 53.885 20.839 55 27.272 55c3.01 0 5.933-.244 8.728-.704"/>
        <path stroke="#00377B" stroke-linecap="round" stroke-linejoin="round" stroke-width="5" d="M62 62l7 7"/>
        <circle cx="51.5" cy="49.5" r="15.5" stroke="#00377B" stroke-linecap="round" stroke-linejoin="round" stroke-width="5"/>
        <path fill="#C42127" d="M63.964 7.98c1.102 0 1.995-.894 1.995-1.995 0-1.102-.893-1.995-1.995-1.995h-9.932c-2.204 0-3.99 1.786-3.99 3.99v3.991c0 2.204 1.786 3.99 3.99 3.99h7.937v3.992h-9.974c-1.102 0-1.995.893-1.995 1.994 0 1.102.893 1.995 1.995 1.995h9.974c2.204 0 3.99-1.786 3.99-3.99v-3.991c0-2.204-1.786-3.99-3.99-3.99h-7.938V7.98h9.933z"/>
        <path fill="#C42127" d="M59.974 26.005c0 1.102-.893 1.995-1.994 1.995-1.102 0-1.995-.893-1.995-1.995v-3.99c0-1.101.893-1.995 1.995-1.995 1.101 0 1.994.894 1.994 1.995v3.99zM59.974 5.985c0 1.101-.893 1.994-1.994 1.994-1.102 0-1.995-.893-1.995-1.994v-3.99C55.985.893 56.878 0 57.98 0c1.101 0 1.994.893 1.994 1.995v3.99z"/>
    </g>
    <defs>
        <clipPath id="clip0">
            <path fill="#fff" d="M0 0H72V72H0z"/>
        </clipPath>
    </defs>
</svg>
