<svg xmlns="http://www.w3.org/2000/svg" width="72" height="72" fill="none" viewBox="0 0 72 72">
    <circle cx="49.5" cy="49.5" r="22.5" fill="#C6DFFF"/>
    <path fill="#C42127" d="M49.268 21.334c-4.41 0-8-3.59-8-8 0-4.411 3.59-8 8-8s8 3.589 8 8c0 4.41-3.59 8-8 8zm0-12c-2.205 0-4 1.794-4 4 0 2.205 1.795 4 4 4 2.206 0 4-1.795 4-4 0-2.206-1.794-4-4-4z"/>
    <path fill="#C42127" d="M49.268 26.666c-1.104 0-2-.896-2-2v-5.332c0-1.104.896-2 2-2s2 .896 2 2v5.332c0 1.104-.896 2-2 2zM49.268 9.334c-1.104 0-2-.896-2-2V2c0-1.104.896-2 2-2s2 .896 2 2v5.333c0 1.104-.896 2-2 2zM54.471 12.347c-.69 0-1.363-.358-1.733-1-.553-.958-.224-2.179.73-2.734l4.613-2.666c.955-.555 2.182-.224 2.734.73.552.958.224 2.179-.73 2.734l-4.614 2.666c-.315.184-.662.27-1 .27zM39.455 20.987c-.691 0-1.363-.358-1.733-1-.553-.958-.225-2.179.73-2.734l4.613-2.667c.952-.551 2.179-.223 2.734.731.552.958.224 2.179-.73 2.734l-4.614 2.666c-.315.184-.659.27-1 .27zM44.065 12.347c-.338 0-.685-.086-1-.27l-4.613-2.666c-.955-.555-1.283-1.776-.73-2.734.554-.954 1.778-1.282 2.733-.73l4.613 2.666c.955.555 1.283 1.776.73 2.734-.37.642-1.042 1-1.733 1zM59.081 20.987c-.338 0-.685-.086-1-.27l-4.613-2.666c-.955-.555-1.283-1.776-.73-2.734.554-.954 1.778-1.282 2.733-.73l4.613 2.666c.955.555 1.283 1.776.73 2.734-.373.642-1.045 1-1.733 1z"/>
    <path fill="#00377B" d="M22.601 48c-4.41 0-8-3.59-8-8s3.59-8 8-8c4.411 0 8 3.59 8 8s-3.589 8-8 8zm0-12c-2.205 0-4 1.794-4 4s1.795 4 4 4c2.206 0 4-1.794 4-4s-1.794-4-4-4z"/>
    <path fill="#00377B" d="M25.362 64h-5.52c-1.63 0-3.033-1.216-3.262-2.83l-.71-4.978c-1.383-.566-2.698-1.328-3.924-2.272L7.282 55.8c-1.513.605-3.27.003-4.086-1.408l-2.76-4.787c-.813-1.41-.461-3.231.822-4.237l3.957-3.107C5.119 41.517 5.07 40.76 5.07 40c0-.768.05-1.53.147-2.283l-3.95-3.082c-1.288-1.006-1.643-2.83-.83-4.243l2.76-4.781c.812-1.41 2.571-2.01 4.08-1.41l4.686 1.881c1.2-.925 2.523-1.693 3.907-2.266l.709-4.982C16.812 17.216 18.212 16 19.842 16h5.517c1.63 0 3.032 1.216 3.261 2.83l.71 4.978c1.386.566 2.698 1.328 3.928 2.272l4.66-1.88c1.513-.605 3.27-.003 4.086 1.408l2.76 4.787c.813 1.41.461 3.232-.821 4.237l-3.957 3.107c.095.744.143 1.501.143 2.263 0 .768-.05 1.531-.146 2.283l3.949 3.083c1.288 1.005 1.643 2.83.83 4.243l-2.76 4.781c-.811 1.41-2.569 2.013-4.08 1.41l-4.686-1.882c-1.2.928-2.523 1.693-3.907 2.267l-.709 4.984C28.391 62.784 26.99 64 25.362 64zm-4.907-4h4.293l.79-5.555c.109-.755.637-1.383 1.362-1.618 1.683-.547 3.288-1.478 4.637-2.69.566-.51 1.374-.657 2.083-.369l5.224 2.096 2.147-3.72-4.4-3.434c-.486-.38-.77-.96-.77-1.577v-.027c0-.135.012-.269.04-.402.178-.875.271-1.784.271-2.704 0-.92-.09-1.83-.272-2.704-.152-.744.128-1.506.725-1.976l4.408-3.459-2.146-3.722-5.198 2.096c-.706.282-1.506.144-2.072-.358-1.416-1.253-2.986-2.16-4.669-2.698-.728-.235-1.261-.864-1.37-1.622L24.747 20h-4.293l-.792 5.555c-.11.755-.638 1.384-1.363 1.618-1.685.547-3.288 1.478-4.637 2.69-.568.51-1.376.657-2.083.369l-5.224-2.096-2.147 3.72 4.4 3.434c.486.38.771.96.771 1.577 0 .135-.013.296-.04.429-.179.875-.27 1.784-.27 2.704 0 .92.091 1.83.273 2.704.152.744-.128 1.506-.725 1.976L4.209 48.14l2.147 3.722 5.198-2.096c.698-.282 1.501-.149 2.071.358 1.42 1.253 2.99 2.162 4.67 2.698.728.235 1.261.864 1.37 1.622l.79 5.557zm21.019-11.48h.026-.026z"/>
</svg>
