<svg xmlns="http://www.w3.org/2000/svg" width="72" height="72" fill="none" viewBox="0 0 72 72">
    <circle cx="49.5" cy="45" r="22.5" fill="#C6DFFF"/>
    <path fill="#C42127" d="M40.727 19.438c0 1.405 1.14 2.545 2.546 2.545 1.405 0 2.545-1.14 2.545-2.545V9.59c0-2.812-2.28-5.091-5.09-5.091-.21 0-.42.013-.627.039L6.627 8.689C2.833 9.195 0 12.431 0 16.26v13.36c0 1.406 1.14 2.546 2.545 2.546 1.406 0 2.546-1.14 2.546-2.546V16.26c0-1.276.944-2.355 2.186-2.52l33.45-4.148v9.847z"/>
    <path fill="#00377B" d="M5.09 39.801c0 1.406-1.139 2.546-2.545 2.546C1.14 42.347 0 41.207 0 39.8V24.528c0-4.217 3.419-7.636 7.636-7.636h40.728c4.217 0 7.636 3.42 7.636 7.637v25.454c0 4.218-3.419 7.636-7.636 7.636H7.636C3.42 57.62 0 54.2 0 49.983c0-1.406 1.14-2.545 2.545-2.545 1.406 0 2.546 1.14 2.546 2.545 0 1.406 1.14 2.546 2.545 2.546h40.728c1.406 0 2.545-1.14 2.545-2.546V24.53c0-1.406-1.14-2.546-2.545-2.546H7.636c-1.405 0-2.545 1.14-2.545 2.546V39.8z"/>
    <path fill="#00377B" fill-rule="evenodd" d="M53.455 27.074H40.727c-5.623 0-10.181 4.558-10.181 10.182 0 5.623 4.558 10.182 10.181 10.182h12.728c1.405 0 2.545-1.14 2.545-2.546V29.62c0-1.405-1.14-2.545-2.545-2.545zm-12.728 5.09H50.91v10.183H40.727c-2.811 0-5.09-2.28-5.09-5.091 0-2.812 2.279-5.091 5.09-5.091z" clip-rule="evenodd"/>
    <path fill="#C42127" fill-rule="evenodd" d="M43.273 39.801c1.405 0 2.545-1.14 2.545-2.545 0-1.406-1.14-2.546-2.545-2.546-1.406 0-2.546 1.14-2.546 2.546s1.14 2.545 2.546 2.545z" clip-rule="evenodd"/>
</svg>
