<svg xmlns="http://www.w3.org/2000/svg" width="72" height="72" fill="none" viewBox="0 0 72 72">
    <circle cx="22.657" cy="49.343" r="22.657" fill="#C6DFFF"/>
    <path fill="#C42127" d="M43.94 23.02c1.416 0 2.563-1.148 2.563-2.563 0-1.415-1.147-2.563-2.563-2.563H31.18c-2.831 0-5.126 2.295-5.126 5.126v5.128c0 2.83 2.295 5.126 5.126 5.126h10.197v5.128H28.563c-1.415 0-2.563 1.147-2.563 2.563 0 1.415 1.148 2.563 2.563 2.563h12.814c2.831 0 5.126-2.295 5.126-5.126v-5.128c0-2.831-2.295-5.126-5.126-5.126H31.18V23.02h12.76z"/>
    <path fill="#C42127" d="M38.815 46.178c0 1.415-1.148 2.563-2.563 2.563-1.416 0-2.563-1.148-2.563-2.563v-5.126c0-1.415 1.147-2.563 2.563-2.563 1.415 0 2.563 1.148 2.563 2.563v5.126zM38.815 20.457c0 1.415-1.148 2.563-2.563 2.563-1.416 0-2.563-1.148-2.563-2.563v-5.126c0-1.415 1.147-2.562 2.563-2.562 1.415 0 2.563 1.147 2.563 2.562v5.126z"/>
    <path stroke="#00377B" stroke-linecap="round" stroke-width="5" d="M44.308 57.742c-2.553.76-5.257 1.167-8.056 1.167-15.572 0-28.196-12.624-28.196-28.196 0-15.572 12.624-28.196 28.196-28.196 15.572 0 28.196 12.624 28.196 28.196 0 2.8-.408 5.504-1.168 8.056"/>
    <path stroke="#C42127" stroke-linecap="round" stroke-linejoin="round" stroke-width="5" d="M49.343 43.804l8.39 20.14 2.98-8.77 8.77-2.98-20.14-8.39zM61.427 55.888l7.048 7.05"/>
</svg>
