<svg xmlns="http://www.w3.org/2000/svg" width="45" height="45" fill="none" viewBox="0 0 45 45">
    <path fill="#000" d="M16.5 21.5l8.146 8.146c.168.172.262.403.26.644-.001.24-.097.47-.267.64-.17.171-.4.267-.641.269-.24.001-.472-.092-.644-.26L16.5 24.086l-6.854 6.853c-.172.168-.404.261-.644.26-.24-.002-.47-.098-.64-.268-.17-.17-.267-.4-.268-.641-.002-.24.092-.472.26-.644L16.5 21.5zm0 4l6.146 6.146c.359.36.846.56 1.354.561.507 0 .994-.202 1.353-.56.36-.36.561-.846.561-1.354 0-.508-.201-.995-.56-1.354L16.5 20.086l-8.854 8.853c-.178.178-.319.389-.415.621-.096.232-.146.481-.146.733 0 .251.05.5.146.732.097.233.238.444.415.622.178.177.39.318.622.414.232.096.48.146.732.146s.5-.05.733-.146c.232-.096.443-.237.62-.415L16.5 25.5zm13 0l8.146-8.146c.168-.172.262-.403.26-.644-.001-.24-.097-.47-.267-.64-.17-.171-.4-.267-.641-.269-.24-.001-.472.092-.644.26L29.5 22.914l-6.854-6.853c-.172-.168-.404-.261-.644-.26-.24.002-.47.098-.64.268-.17.17-.267.4-.268.641-.002.24.092.472.26.644L29.5 25.5zm0-4l6.146-6.146c.359-.36.846-.56 1.354-.561.507 0 .994.202 1.353.56.36.36.561.846.561 1.354 0 .508-.201.995-.56 1.354L29.5 26.914l-8.854-8.853c-.178-.178-.319-.389-.415-.621-.096-.233-.146-.482-.146-.733s.05-.5.146-.732c.097-.233.238-.444.415-.621.178-.178.39-.32.622-.415.232-.097.48-.146.732-.146s.5.05.733.146c.232.096.443.237.62.415L29.5 21.5z"/>
</svg>
