<svg xmlns="http://www.w3.org/2000/svg" width="12" height="12" fill="none" viewBox="0 0 12 12">
    <path fill="#666" d="M6 0C2.692 0 0 2.692 0 6s2.692 6 6 6 6-2.692 6-6-2.692-6-6-6zm.75 2.625c.414 0 .75.336.75.75s-.336.75-.75.75S6 3.789 6 3.375s.336-.75.75-.75zm.661 6.392c-.682.269-.881.358-1.32.358-.357 0-.635-.087-.833-.262-.392-.345-.326-.843-.204-1.353l.37-1.306c.07-.269.215-.818.013-1.01-.202-.194-.673-.072-.947.03l.099-.402c.395-.161.895-.358 1.321-.358.641 0 1.11.32 1.11.926 0 .057-.006.156-.02.3-.024.262-.032.245-.441 1.695-.046.16-.117.498-.117.662 0 .631.734.475 1.068.317l-.099.403z"/>
</svg>
