<svg xmlns="http://www.w3.org/2000/svg" width="16" height="16" fill="none" viewBox="0 0 16 16">
    <path stroke="#666" stroke-linecap="round" stroke-linejoin="round" stroke-miterlimit="10" d="M8 10.5c1.38 0 2.5-1.12 2.5-2.5S9.38 5.5 8 5.5 5.5 6.62 5.5 8s1.12 2.5 2.5 2.5z"/>
    <path stroke="#666" stroke-linecap="round" stroke-linejoin="round" stroke-miterlimit="10" d="M13.5 8c0-.465-.064-.913-.172-1.344l1.917-1.107-1.5-2.598-1.915 1.106c-.644-.626-1.441-1.093-2.33-1.344V.5h-3v2.212c-.888.252-1.685.719-2.33 1.345L2.255 2.951l-1.5 2.598 1.917 1.107C2.564 7.087 2.5 7.535 2.5 8c0 .464.064.913.172 1.344L.755 10.451l1.5 2.598 1.916-1.106c.644.626 1.441 1.093 2.33 1.344V15.5h3v-2.212c.889-.252 1.685-.719 2.33-1.344l1.916 1.106 1.5-2.598-1.917-1.107c.106-.432.17-.881.17-1.345z"/>
</svg>
