<svg xmlns="http://www.w3.org/2000/svg" width="16" height="16" fill="none" viewBox="0 0 16 16">
    <path fill="#fff" d="M12.828 6.957V4.87c0-1.291-.513-2.53-1.427-3.444C10.488.513 9.25 0 7.957 0c-1.291 0-2.53.513-3.443 1.426C3.6 2.34 3.087 3.58 3.087 4.87v2.087C3.087 9.253 1 9.81 1 11.132c0 1.183 2.713 2.087 6.957 2.087s6.958-.904 6.958-2.087c0-1.322-2.087-1.879-2.087-4.175z"/>
    <path fill="#333" stroke="#fff" d="M6.897 15.092c.343.012.697.018 1.06.018.365 0 .718-.006 1.06-.018-.039.036-.08.07-.123.101-.272.2-.6.307-.936.307-.337 0-.665-.108-.937-.307-.043-.032-.084-.065-.124-.101z"/>
</svg>
