<svg xmlns="http://www.w3.org/2000/svg" width="16" height="16" fill="none" viewBox="0 0 16 16">
    <g clip-path="url(#clip0)">
        <path fill="#fff" d="M15.707.115c-.09-.061-.194-.1-.303-.111-.108-.012-.217.003-.319.044L8.533 2.667h-5.2c-.884 0-1.732.35-2.357.976C.351 4.268 0 5.116 0 6c0 .884.351 1.732.976 2.357.625.625 1.473.976 2.357.976h5.2l6.547 2.619c.101.042.211.058.32.047.11-.011.214-.05.305-.11.091-.062.166-.144.217-.241.052-.097.078-.205.078-.315V.667c0-.11-.027-.217-.078-.313-.051-.096-.125-.178-.215-.24zM8.153 10.667H3.847l1.629 4.076c.197.492.582.886 1.07 1.095.487.21 1.037.216 1.53.02.493-.198.887-.582 1.096-1.07.209-.487.216-1.038.019-1.53l-1.038-2.591z"/>
    </g>
    <defs>
        <clipPath id="clip0">
            <path fill="#fff" d="M0 0H16V16H0z"/>
        </clipPath>
    </defs>
</svg>
