<svg width="96" height="72" viewBox="0 0 96 72" fill="none" xmlns="http://www.w3.org/2000/svg">
<rect width="96" height="72" fill="#C6DFFF"/>
<path d="M57.2857 31H53.7143V26.7143C53.7143 26.3198 53.3945 26 53 26H38.7143C38.3198 26 38 26.3198 38 26.7143V43.1428C38 44.7208 39.2792 46 40.8572 46H55.1428C56.7208 46 58 44.7208 58 43.1428V31.7143C58 31.3198 57.6802 31 57.2857 31ZM43.7143 29.5714H48C48.3945 29.5714 48.7143 29.8912 48.7143 30.2857C48.7143 30.6802 48.3945 31 48 31H43.7143C43.3198 31 43 30.6802 43 30.2857C43 29.8912 43.3198 29.5714 43.7143 29.5714ZM50.1428 43.1428H41.5714C41.1769 43.1428 40.8571 42.823 40.8571 42.4285C40.8571 42.034 41.1769 41.7142 41.5714 41.7142H50.1428C50.5373 41.7142 50.8571 42.034 50.8571 42.4285C50.8571 42.823 50.5373 43.1428 50.1428 43.1428ZM50.1428 40.2857H41.5714C41.1769 40.2857 40.8571 39.9659 40.8571 39.5714C40.8571 39.1769 41.1769 38.8571 41.5714 38.8571H50.1428C50.5373 38.8571 50.8571 39.1769 50.8571 39.5714C50.8571 39.9659 50.5373 40.2857 50.1428 40.2857ZM50.1428 37.4286H41.5714C41.1769 37.4286 40.8571 37.1088 40.8571 36.7143C40.8571 36.3198 41.1769 36 41.5714 36H50.1428C50.5373 36 50.8571 36.3198 50.8571 36.7143C50.8571 37.1088 50.5373 37.4286 50.1428 37.4286ZM50.1428 34.5714H41.5714C41.1769 34.5714 40.8571 34.2516 40.8571 33.8571C40.8571 33.4626 41.1769 33.1428 41.5714 33.1428H50.1428C50.5373 33.1428 50.8571 33.4626 50.8571 33.8571C50.8571 34.2516 50.5373 34.5714 50.1428 34.5714ZM56.5714 43.1428C56.5714 43.9318 55.9318 44.5714 55.1428 44.5714C54.3539 44.5714 53.7143 43.9318 53.7143 43.1428V32.4286H56.5714V43.1428H56.5714Z" fill="#00377B"/>
</svg>
