<svg xmlns="http://www.w3.org/2000/svg" width="25" height="24" fill="none" viewBox="0 0 25 24">
    <path fill="#fff" fill-opacity=".6" d="M8.5.57H.98c-.54 0-.98.44-.98.98v7.51c0 .54.44.98.98.98H8.5c.54 0 .98-.44.98-.98V1.55c0-.54-.44-.98-.98-.98zm-.99 7.51H1.97V2.54h5.55v5.54h-.01zM23.71 4.61L19.39.29C19.2.1 18.95 0 18.69 0c-.26 0-.51.1-.7.29l-4.32 4.32c-.18.18-.29.43-.29.7 0 .26.1.51.29.7L18 10.33c.19.19.44.29.7.29.26 0 .5-.1.7-.29L23.71 6c.39-.38.39-1 0-1.39zm-5.02 3.63l-2.93-2.93 2.93-2.93 2.93 2.93-2.93 2.93zM22.45 14.52h-7.51c-.54 0-.98.44-.98.98v7.51c0 .54.44.98.98.98h7.51c.54 0 .98-.44.98-.98V15.5c0-.54-.44-.98-.98-.98zm-.99 7.51h-5.55v-5.55h5.55v5.55zM8.5 14.52H.98c-.54 0-.98.44-.98.98v7.51c0 .55.44.99.98.99H8.5c.54 0 .98-.44.98-.98V15.5c0-.54-.44-.98-.98-.98zm-.99 7.51H1.97v-5.55h5.55v5.55h-.01z"/>
</svg>
