<svg xmlns="http://www.w3.org/2000/svg" width="24" height="24" fill="none" viewBox="0 0 24 24">
    <path fill="#fff" fill-opacity=".6" fill-rule="evenodd" d="M15.235.432c.403.5.324 1.23-.175 1.633l-.124.1C19.692 3.42 23.2 7.75 23.2 12.9c0 6.13-4.97 11.1-11.1 11.1S1 19.03 1 12.9c0-.641.52-1.161 1.161-1.161.642 0 1.162.52 1.162 1.161 0 4.848 3.93 8.777 8.777 8.777 4.848 0 8.777-3.93 8.777-8.777 0-4.065-2.763-7.485-6.514-8.483l.196.318c.337.546.167 1.261-.379 1.598-.546.337-1.261.167-1.598-.379l-1.47-2.383c-.307-.498-.197-1.146.259-1.513l2.23-1.8c.5-.403 1.231-.325 1.634.174zm-4.17 9.052c0-.535.433-.968.967-.968.535 0 .968.433.968.968V12h4.452c.534 0 .967.433.967.968 0 .534-.433.967-.967.967h-5.42c-.534 0-.967-.433-.967-.967V9.484z" clip-rule="evenodd"/>
</svg>
