<svg xmlns="http://www.w3.org/2000/svg" width="24" height="24" fill="none" viewBox="0 0 24 24">
    <path fill="#fff" fill-opacity=".6" fill-rule="evenodd" d="M19.636 5.81V2.683C19.636 1.477 18.66.5 17.455.5c-.09 0-.18.005-.269.017L2.84 2.295C1.214 2.512 0 3.9 0 5.54v10.09c0 .603.488 1.091 1.09 1.091.603 0 1.092-.488 1.092-1.09V9.083c0-.603.488-1.091 1.09-1.091h17.455c.603 0 1.091.488 1.091 1.09v1.092h-4.363c-2.41 0-4.364 1.953-4.364 4.363s1.954 4.364 4.364 4.364h4.363v1.09c0 .603-.488 1.092-1.09 1.092H3.272c-.603 0-1.091-.489-1.091-1.091 0-.603-.489-1.091-1.091-1.091-.603 0-1.091.488-1.091 1.09 0 1.808 1.465 3.273 3.273 3.273h17.454c1.808 0 3.273-1.465 3.273-3.272V9.084c0-1.808-1.465-3.273-3.273-3.273h-1.09zm-2.181 6.546h4.363v4.364h-4.363c-1.205 0-2.182-.977-2.182-2.182s.977-2.182 2.182-2.182zm0-6.545H3.272c-.383 0-.75.066-1.091.186V5.54c0-.546.405-1.009.937-1.08l14.335-1.777V5.81zm2.181 8.727c0 .603-.488 1.091-1.09 1.091-.603 0-1.091-.488-1.091-1.09 0-.603.488-1.092 1.09-1.092.603 0 1.091.489 1.091 1.091z" clip-rule="evenodd"/>
</svg>
